# xmcd CD database file
#
# Track frame offsets:
#	150
#	18015
#	44595
#	70917
#
# Disc length: 1182 seconds
#
# Revision: 0
# Processed by: cddbd v1.5PL3 Copyright (c) Steve Scherf et al.
# Submitted via: CDex 1.40Release
#
DISCID=2c049c04
DTITLE=谷口　宗一 - 君だけに輝く宝石
DYEAR=1900
DGENRE=Rock
TTITLE0=君だけに輝く宝石
TTITLE1=丘を越えて　hibiya yaon live version
TTITLE2=不思議　hibiya yaon live version
TTITLE3=君だけに輝く宝石　original karaoke
EXTD=ID3G: 17
EXTT0=
EXTT1=
EXTT2=
EXTT3=
PLAYORDER=
